<svg width="221" height="220" viewBox="0 0 221 220" fill="none" xmlns="http://www.w3.org/2000/svg">
<path d="M110.506 219.99C49.477 219.99 0 170.751 0 109.99C0 49.2291 49.477 0 110.506 0C171.535 0 220.991 49.2597 220.991 110C220.991 170.74 171.514 220 110.506 220V219.99Z" fill="white"/>
<path fill-rule="evenodd" clip-rule="evenodd" d="M110.506 220C111.013 220 111.52 219.997 112.026 219.99C113.19 219.974 114.35 219.941 115.506 219.889C174.195 217.285 220.991 169.072 220.991 110C220.991 49.2597 171.535 0 110.506 0C49.477 0 0 49.2291 0 109.99C0 170.751 49.477 219.99 110.506 219.99V220ZM111.992 214.99C169.574 214.198 215.991 167.465 215.991 110C215.991 52.0412 168.793 5 110.506 5C52.2158 5 5 52.013 5 109.99C5 167.967 52.2164 214.99 110.506 214.99H111.992Z" fill="#16161E"/>
<path fill-rule="evenodd" clip-rule="evenodd" d="M36.7407 188.605C36.7407 188.605 36.7407 188.605 36.7363 188.598L36.7407 188.605C35.5589 189.319 34.0221 188.94 33.3081 187.758C32.5941 186.576 32.9733 185.039 34.1551 184.325L35.4479 186.465C34.1551 184.325 34.1561 184.325 34.1574 184.324L34.1621 184.321L34.1786 184.311L34.24 184.274C34.2934 184.242 34.3719 184.195 34.4747 184.135C34.6804 184.013 34.9838 183.834 35.3806 183.604C36.174 183.143 37.3407 182.476 38.8454 181.641C41.8546 179.972 46.2173 177.634 51.6506 174.946C62.5122 169.572 77.6786 162.787 94.8826 157.154C129.109 145.948 172.18 139.046 205.277 157.984C206.475 158.67 206.891 160.197 206.205 161.396C205.519 162.594 203.992 163.01 202.794 162.324C171.674 144.517 130.452 150.77 96.4384 161.906C79.5225 167.444 64.5827 174.126 53.8679 179.427C48.5131 182.077 44.22 184.378 41.2706 186.014C39.796 186.831 38.6577 187.483 37.8908 187.928C37.5074 188.15 37.2169 188.321 37.0238 188.436C36.9272 188.493 36.8549 188.536 36.8076 188.565L36.7552 188.596L36.7432 188.603L36.7407 188.605Z" fill="#16161E"/>
<path fill-rule="evenodd" clip-rule="evenodd" d="M89.1575 116C83.3439 112.689 78.6647 111.326 75.0465 112.211C70.7895 113.251 64.7265 116.093 57.8628 119.938C51.0594 123.75 43.6731 128.428 36.8314 132.987C29.9946 137.542 23.728 141.959 19.1692 145.239C16.8906 146.879 15.0402 148.233 13.7607 149.176C13.121 149.648 12.624 150.016 12.2876 150.267C12.1195 150.392 11.9914 150.488 11.9058 150.552L11.7785 150.647C11.7783 150.647 11.7783 150.647 10.2765 148.649C8.77467 146.65 8.77498 146.65 8.77545 146.649L8.9106 146.548C8.99912 146.482 9.1301 146.384 9.30132 146.257C9.64376 146.002 10.1472 145.628 10.7938 145.151C12.0868 144.198 13.9529 142.833 16.2492 141.181C20.8404 137.877 27.1581 133.424 34.059 128.826C40.9549 124.231 48.4594 119.475 55.4191 115.576C62.3184 111.711 68.8905 108.568 73.8596 107.354C79.4675 105.983 85.636 108.24 91.6319 111.655C97.7215 115.123 104.252 120.157 110.757 125.217C111.04 125.437 111.324 125.658 111.608 125.879C117.896 130.771 124.176 135.659 130.274 139.441C136.687 143.419 142.559 145.953 147.714 146.151C149.093 146.203 150.169 147.365 150.116 148.744C150.063 150.124 148.902 151.2 147.522 151.147C141.032 150.898 134.244 147.787 127.638 143.69C121.308 139.763 114.835 134.726 108.616 129.886C108.306 129.645 107.996 129.404 107.687 129.163C101.118 124.054 94.8774 119.257 89.1575 116ZM8.27783 150.151C7.4484 149.047 7.67163 147.479 8.77545 146.649L10.2765 148.649L11.7785 150.647C10.6747 151.477 9.10725 151.254 8.27783 150.151Z" fill="#16161E"/>
<path fill-rule="evenodd" clip-rule="evenodd" d="M202.509 57.4422C203.607 56.6047 205.175 56.8157 206.013 57.9135C206.85 59.0112 206.639 60.58 205.542 61.4174L204.025 59.4298L202.509 57.4422ZM159.802 91.3472C153.005 94.887 146.425 97.6516 141.343 98.3176C136.034 99.0133 131.415 97.5439 127.145 95.2146C123.834 93.4093 120.565 90.9833 117.303 88.563C116.451 87.9308 115.599 87.299 114.748 86.6788C106.393 80.5931 97.1351 74.8956 83.2366 76.1308C76.2693 76.75 67.9009 79.701 59.1333 83.9389C50.4064 88.1572 41.4705 93.5576 33.4125 98.9054C25.3607 104.249 18.2234 109.515 13.0976 113.446C10.5359 115.411 8.47931 117.04 7.06536 118.177C6.35845 118.745 5.81234 119.19 5.44421 119.491C5.26016 119.642 5.12062 119.757 5.02773 119.834L4.92368 119.92L4.89132 119.947C4.89127 119.947 4.89125 119.947 4.8215 119.864L4.89132 119.947C3.83094 120.831 2.25439 120.689 1.37011 119.628C0.485827 118.568 0.628585 116.991 1.68897 116.107L3.2901 118.027C1.68897 116.107 1.6894 116.107 1.69003 116.106L1.72933 116.074L1.84152 115.981C1.9399 115.899 2.0851 115.78 2.27497 115.624C2.65471 115.313 3.21318 114.858 3.93315 114.279C5.37298 113.122 7.45946 111.469 10.0547 109.479C15.243 105.499 22.4757 100.163 30.6477 94.7394C38.8134 89.3201 47.955 83.7886 56.9573 79.4373C65.9188 75.1056 74.9312 71.8492 82.794 71.1504C98.5559 69.7496 109.074 76.3602 117.692 82.6372C118.639 83.3274 119.554 84.0057 120.445 84.6658C123.665 87.0531 126.565 89.203 129.539 90.825C133.239 92.843 136.776 93.8733 140.693 93.36C144.837 92.817 150.746 90.4261 157.493 86.9125C164.162 83.4393 171.384 79.0131 178.072 74.6358C184.754 70.2628 190.867 65.9615 195.312 62.7519C197.533 61.1477 199.336 59.8178 200.581 58.89C201.204 58.4262 201.688 58.0629 202.015 57.8163C202.178 57.6929 202.303 57.5988 202.386 57.5358L202.502 57.4474L202.507 57.4433L202.509 57.4422C202.509 57.4421 202.509 57.4422 204.025 59.4298C205.542 61.4174 205.541 61.4177 205.541 61.4181L205.532 61.4246L205.408 61.519C205.321 61.5848 205.193 61.6818 205.026 61.808C204.691 62.0605 204.199 62.4298 203.568 62.9001C202.305 63.8407 200.483 65.1852 198.239 66.8055C193.753 70.0448 187.574 74.3924 180.81 78.8194C174.053 83.2421 166.677 87.7669 159.802 91.3472Z" fill="#16161E"/>
</svg>
