<svg width="222" height="220" viewBox="0 0 222 220" fill="none" xmlns="http://www.w3.org/2000/svg">
<path d="M111.01 217.5C51.0618 217.5 2.5 169.358 2.5 110C2.5 50.6416 51.0618 2.5 111.01 2.5C170.958 2.5 219.5 50.6611 219.5 110C219.5 169.339 170.938 217.5 111.01 217.5Z" fill="white" stroke="#16161E" stroke-width="5" stroke-miterlimit="10" stroke-linecap="round"/>
<path fill-rule="evenodd" clip-rule="evenodd" d="M26.3618 140.022C25.4515 140.775 24.3991 141.485 23.2318 141.848L23.2308 141.848C13.3242 144.921 3.71211 138.768 1.98093 127.831C1.76508 126.467 2.69562 125.187 4.05936 124.971C5.42309 124.755 6.7036 125.686 6.91945 127.049C8.20821 135.191 14.9555 139.179 21.7485 137.073C22.0138 136.99 22.4773 136.746 23.1755 136.169C23.853 135.608 24.6158 134.85 25.4904 133.906C26.2452 133.091 27.0379 132.187 27.8987 131.206C28.0331 131.053 28.1691 130.898 28.3069 130.741C29.3162 129.592 30.405 128.362 31.5618 127.139C36.0803 122.364 42.1764 117.09 50.0102 117.09C55.1742 117.09 59.0128 118.54 62.0335 120.815C64.9758 123.031 67.005 125.935 68.709 128.526C68.884 128.793 69.0555 129.054 69.2241 129.312C72.5343 134.366 74.7248 137.71 80.0202 137.71C85.5647 137.71 88.1019 134.013 91.737 128.716L91.8954 128.485C95.44 123.322 99.9362 117.09 109.67 117.09C119.399 117.09 123.889 123.323 127.517 128.457L127.525 128.468C131.289 133.796 134.055 137.71 140.2 137.71C141.953 137.71 143.745 136.855 145.815 135.087C147.702 133.476 149.537 131.36 151.574 129.011C151.789 128.763 152.006 128.513 152.226 128.26C154.455 125.696 156.923 122.93 159.708 120.819C162.527 118.683 165.835 117.09 169.75 117.09C173.681 117.09 176.906 118.696 179.627 120.853C182.292 122.965 184.631 125.738 186.768 128.271L186.782 128.288C188.997 130.914 191.003 133.289 193.179 135.041C195.304 136.753 197.401 137.71 199.76 137.71C204.947 137.71 208.528 134.893 210.927 131.821C212.125 130.288 212.983 128.741 213.541 127.573C213.819 126.992 214.018 126.513 214.146 126.188C214.209 126.026 214.254 125.902 214.282 125.824C214.296 125.785 214.306 125.758 214.311 125.743L214.314 125.735C214.314 125.734 214.314 125.733 214.314 125.733C214.314 125.732 214.314 125.732 214.315 125.731C214.315 125.731 214.315 125.73 214.315 125.73C214.745 124.42 216.155 123.706 217.466 124.133C218.778 124.562 219.495 125.973 219.067 127.286L216.69 126.51C219.067 127.286 219.067 127.287 219.066 127.288L219.065 127.29L219.064 127.296L219.059 127.311L219.043 127.356C219.031 127.393 219.014 127.442 218.992 127.504C218.948 127.626 218.885 127.797 218.802 128.01C218.636 128.434 218.389 129.025 218.053 129.729C217.383 131.129 216.345 133.007 214.868 134.899C211.917 138.677 207.033 142.71 199.76 142.71C195.889 142.71 192.717 141.089 190.042 138.935C187.482 136.873 185.207 134.176 183.116 131.696L182.961 131.512C180.752 128.895 178.728 126.521 176.521 124.771C174.366 123.062 172.205 122.09 169.75 122.09C167.28 122.09 165.011 123.075 162.728 124.804C160.411 126.56 158.253 128.949 155.999 131.541C155.777 131.796 155.553 132.055 155.328 132.315C153.345 134.603 151.254 137.017 149.062 138.889C146.605 140.988 143.682 142.71 140.2 142.71C131.437 142.71 127.256 136.772 123.816 131.885C123.688 131.703 123.56 131.522 123.433 131.343C119.777 126.167 116.621 122.09 109.67 122.09C102.724 122.09 99.5504 126.169 96.0175 131.315C95.8432 131.569 95.6673 131.827 95.4892 132.089C92.2373 136.863 88.2545 142.71 80.0202 142.71C71.9233 142.71 68.2593 137.038 65.2447 132.371C65.0034 131.998 64.7663 131.631 64.5314 131.274C62.8454 128.71 61.2171 126.459 59.0256 124.809C56.9126 123.218 54.1412 122.09 50.0102 122.09C44.454 122.09 39.6551 125.861 35.1936 130.576C34.1054 131.726 33.0688 132.896 32.0635 134.041C31.9294 134.193 31.7956 134.346 31.6621 134.498C30.8058 135.474 29.9632 136.435 29.1588 137.303C28.2308 138.305 27.2927 139.252 26.3618 140.022Z" fill="#16161E"/>
<path fill-rule="evenodd" clip-rule="evenodd" d="M33.4205 174.042C31.917 175.606 30.1162 177.298 28.0636 177.937C26.7453 178.347 25.3438 177.612 24.9334 176.293C24.5229 174.975 25.2589 173.573 26.5772 173.163C27.2545 172.952 28.255 172.2 29.8162 170.577C30.4424 169.925 31.0918 169.209 31.8025 168.425C31.9254 168.29 32.05 168.152 32.1767 168.013C33.0237 167.08 33.9431 166.076 34.9293 165.079C38.8378 161.128 44.1498 156.9 51.5604 156.9C56.5021 156.9 60.1826 158.289 63.0807 160.472C65.9002 162.596 67.8422 165.378 69.4655 167.846C69.6281 168.094 69.7875 168.337 69.9442 168.576C73.1102 173.409 75.1616 176.54 80.1404 176.54C85.358 176.54 87.739 173.07 91.2173 168.001L91.3517 167.805C94.7277 162.886 99.0414 156.9 108.38 156.9C117.714 156.9 122.024 162.887 125.479 167.777C129.076 172.866 131.676 176.54 137.46 176.54C139.088 176.54 140.768 175.746 142.73 174.07C144.519 172.542 146.26 170.535 148.2 168.298C148.406 168.061 148.614 167.821 148.824 167.579C150.947 165.139 153.306 162.494 155.97 160.476C158.669 158.432 161.846 156.9 165.61 156.9C169.391 156.9 172.488 158.444 175.094 160.51C177.641 162.528 179.875 165.177 181.907 167.586L181.925 167.608C184.036 170.111 185.939 172.363 188.001 174.024C190.012 175.644 191.986 176.54 194.2 176.54C195.581 176.54 196.7 177.659 196.7 179.04C196.7 180.421 195.581 181.54 194.2 181.54C190.475 181.54 187.426 179.981 184.865 177.918C182.416 175.946 180.242 173.369 178.253 171.009L178.103 170.832C175.999 168.337 174.079 166.086 171.988 164.428C169.949 162.811 167.915 161.9 165.61 161.9C163.29 161.9 161.152 162.824 158.989 164.462C156.793 166.126 154.744 168.392 152.597 170.861C152.384 171.105 152.17 171.352 151.955 171.601C150.068 173.779 148.071 176.084 145.977 177.872C143.628 179.879 140.818 181.54 137.46 181.54C129.055 181.54 125.039 175.837 121.767 171.189C121.642 171.012 121.519 170.836 121.396 170.663C117.912 165.733 114.936 161.9 108.38 161.9C101.829 161.9 98.838 165.734 95.4741 170.635C95.3068 170.878 95.1378 171.127 94.9666 171.378C91.8748 175.919 88.0479 181.54 80.1404 181.54C72.3603 181.54 68.8352 176.081 65.9678 171.64C65.7375 171.284 65.5114 170.934 65.2878 170.594C63.6823 168.152 62.1411 166.024 60.0722 164.466C58.0818 162.966 55.4686 161.9 51.5604 161.9C46.2209 161.9 42.1429 164.897 38.4839 168.596C37.5782 169.511 36.7197 170.447 35.8786 171.373C35.7578 171.507 35.6368 171.64 35.5159 171.773C34.8083 172.554 34.102 173.333 33.4205 174.042Z" fill="#16161E"/>
<path d="M83.5097 46.6578C73.1005 50.5524 63.4794 58.2724 57.5151 67.0711C55.6437 69.8427 54.2186 72.8745 52.697 76.1116C52.5867 76.3462 52.4759 76.582 52.3644 76.8188C50.7465 80.2541 48.9863 83.8912 46.5051 87.1872L46.4928 87.2036L46.4801 87.2199C36.9711 99.4267 24.0581 105.858 8.47508 105.68C7.09229 105.664 5.98423 104.537 6.00017 103.162C6.01611 101.787 7.15 100.686 8.53279 100.701C22.4891 100.861 33.9299 95.1907 42.5078 84.188C44.6378 81.3543 46.2049 78.1563 47.829 74.7077C47.9493 74.4523 48.07 74.1954 48.1913 73.9371C49.6785 70.77 51.2609 67.4003 53.3587 64.2939L53.3611 64.2903C59.8964 54.6486 70.3464 46.2633 81.7458 41.9982C93.1634 37.7263 105.856 37.4937 116.453 44.7634C125.692 51.0957 135.443 61.6181 133.718 74.3482L133.42 76.5457L131.19 76.5046C129.581 76.475 128.125 75.5789 127.298 75.0577C126.965 74.8477 126.682 74.6636 126.435 74.5026L126.434 74.5023C125.853 74.1238 125.468 73.8734 125.088 73.7158C123.304 72.9807 121.395 72.5594 119.479 72.4907C115.735 72.3614 112.528 73.5115 110.27 75.5058C108.031 77.4835 106.579 80.4165 106.528 84.1759L106.527 84.1793C106.452 89.2175 109.674 94.2313 114.305 96.2754C117.475 97.6752 121.239 97.8361 124.979 97.175L124.984 97.1741C129.434 96.397 134.387 95.258 137.817 93.2257C141.08 91.2909 144.064 88.9488 147.161 86.5177C148.776 85.2499 150.422 83.958 152.155 82.687L152.228 82.6332C156.179 79.7362 160.389 76.6497 165.128 74.4404C169.921 72.2063 175.494 70.829 181.057 71.6851L181.059 71.6855C183.227 72.0209 185.614 72.7787 187.771 73.9512C189.915 75.1166 191.987 76.7774 193.307 79.0046L193.308 79.0061C193.898 80.0019 194.351 81.2332 194.065 82.5634C193.773 83.9263 192.845 84.7506 192.148 85.2189C191.512 85.6462 190.757 85.9794 190.211 86.2204L190.121 86.2599C189.483 86.542 188.998 86.7613 188.584 87.0185C186.042 88.6029 183.979 90.5859 182.875 92.735C181.888 94.657 181.622 96.7749 182.572 99.1516C182.6 99.174 182.63 99.1975 182.661 99.2219C183.001 99.4888 183.526 99.8746 184.22 100.313C185.613 101.192 187.671 102.27 190.292 103.037C195.468 104.55 203.015 104.906 212.273 99.7539C213.479 99.0824 215.005 99.5105 215.681 100.71C216.356 101.91 215.925 103.427 214.719 104.098C204.205 109.949 195.257 109.678 188.879 107.813C185.724 106.89 183.241 105.592 181.537 104.516C180.683 103.978 180.02 103.492 179.56 103.131C179.33 102.951 179.15 102.802 179.023 102.692C178.959 102.637 178.908 102.593 178.87 102.559C178.859 102.549 178.849 102.54 178.84 102.532L178.823 102.517L178.807 102.502L178.798 102.494C178.798 102.494 178.796 102.492 180.504 100.671L178.796 102.492L178.435 102.157L178.229 101.711C176.353 97.6522 176.717 93.7771 178.415 90.4706C180.063 87.2629 182.907 84.6807 185.924 82.8L185.927 82.7986C186.669 82.3367 187.457 81.9886 188.041 81.731L188.087 81.7104C188.423 81.562 188.679 81.4467 188.88 81.3495C188.142 80.2038 186.92 79.163 185.368 78.3196C183.748 77.4388 181.919 76.8574 180.291 76.6052C176.019 75.9478 171.476 76.9802 167.254 78.9481C163.009 80.9272 159.168 83.7309 155.128 86.6934C153.678 87.7571 152.172 88.9367 150.623 90.1504C147.365 92.7036 143.914 95.4077 140.382 97.5021L140.381 97.5027C136.08 100.05 130.298 101.301 125.854 102.077C121.482 102.85 116.633 102.751 112.272 100.826C105.805 97.9707 101.415 91.1353 101.52 84.1053C101.59 79.0242 103.598 74.7393 106.944 71.7838C110.272 68.8446 114.777 67.3461 119.655 67.5151L119.658 67.5152C122.188 67.6058 124.685 68.1602 127.007 69.1174L127.01 69.1186C127.617 69.3696 128.276 69.7583 128.854 70.1246C128.201 61.7863 121.456 54.2397 113.609 48.8612C104.756 42.7882 93.9014 42.7697 83.5097 46.6578Z" fill="#16161E"/>
</svg>
